<svg width="109" height="109" viewBox="0 0 109 109" fill="none" xmlns="http://www.w3.org/2000/svg">
<g clip-path="url(#clip0_499_128)">
<path d="M54.2582 108.516C84.2241 108.516 108.516 84.2241 108.516 54.2582C108.516 24.2922 84.2241 0 54.2582 0C24.2922 0 0 24.2922 0 54.2582C0 84.2241 24.2922 108.516 54.2582 108.516Z" fill="#183564"/>
<g filter="url(#filter0_d_499_128)">
<path fill-rule="evenodd" clip-rule="evenodd" d="M21.4033 75.9114C21.4518 75.9114 21.4914 75.9512 21.4914 76V76.3209L21.7829 76.3226C21.8196 76.3226 21.8527 76.346 21.8653 76.3803C21.878 76.4151 21.8682 76.4536 21.84 76.4778L21.2298 77.004C21.2139 77.0175 21.1935 77.0252 21.1722 77.0252H19.1947C19.1575 77.0252 19.1245 77.0023 19.1118 76.9675C19.0987 76.9331 19.1089 76.8941 19.1367 76.87L19.5049 76.5524V75.9919C19.5049 75.9618 19.5147 75.9339 19.5318 75.9114H19.193V51.6006C19.1824 51.6006 19.1718 51.5998 19.1608 51.5977L9.2165 49.7394C9.20181 49.7369 9.18753 49.7322 9.17487 49.7263C8.18424 49.5669 8.09037 48.3306 8.09037 48.3306C8.08425 48.2394 8.14832 48.1589 8.23853 48.144L41.3865 42.7927C41.3865 42.7927 38.6771 39.8495 38.0722 39.0435C37.7758 38.6497 38.0273 37.7657 38.0273 37.7657L41.7518 38.3635C41.8302 38.3758 41.8686 38.3474 41.8665 38.277V37.4316C41.8686 37.3977 41.8894 37.382 41.9314 37.3867L44.2041 37.7415C44.2911 37.7598 44.3706 37.7411 44.4425 37.6851L59.6387 26.6323C59.8709 26.4691 60.1457 26.6997 60.0812 26.9231L58.8554 34.739C58.8468 34.7937 58.8175 34.8429 58.773 34.8759L56.0235 36.9347C55.939 36.9992 55.9509 37.0636 56.0121 37.1281L58.4656 39.9021C58.533 39.961 58.6003 39.9915 58.6681 39.9987L66.525 41.2253C66.6086 41.2346 66.6515 41.2876 66.6499 41.3881V42.6053C66.6527 42.6833 66.6866 42.7278 66.758 42.7325L100.278 48.144C100.368 48.1589 100.432 48.2394 100.426 48.3306C100.426 48.3306 100.332 49.5669 99.3415 49.7263C99.3284 49.7322 99.3146 49.7369 99.2999 49.7394L89.583 51.5553C89.5315 51.5625 89.5017 51.5921 89.4997 51.649V75.9114C89.4997 76.0089 89.4209 76.0878 89.3233 76.0878H88.8213V76.5524L89.1895 76.87C89.2176 76.8941 89.2274 76.9331 89.2148 76.9675C89.2017 77.0023 89.1686 77.0252 89.1319 77.0252H87.1539C87.1327 77.0252 87.1123 77.0175 87.0964 77.004L86.4862 76.4778C86.4584 76.4536 86.4482 76.4151 86.4608 76.3803C86.4739 76.346 86.5066 76.3226 86.5433 76.3226L86.8347 76.3209V76.0878H66.6499V77.1074L66.2609 77.1078V77.6272H66.3417C66.4274 77.6272 66.5013 77.6895 66.5156 77.7743L66.6474 78.5455C66.649 78.5557 66.6499 78.5654 66.6499 78.5756C66.6499 78.6617 66.5878 78.7354 66.5029 78.7499C66.4931 78.7515 66.4833 78.7524 66.4731 78.7524H63.6514C63.6416 78.7524 63.6314 78.7515 63.6216 78.7499C63.5371 78.7354 63.4747 78.6617 63.4747 78.5756C63.4747 78.5654 63.4755 78.5557 63.4771 78.5455L63.609 77.7743C63.6233 77.6895 63.6971 77.6272 63.7833 77.6272H63.8641V77.1108L44.5625 77.135V77.6272H44.6433C44.729 77.6272 44.8029 77.6895 44.8172 77.7743L44.949 78.5455C44.9507 78.5557 44.9515 78.5654 44.9515 78.5756C44.9515 78.6617 44.8894 78.7354 44.8045 78.7499C44.7947 78.7515 44.785 78.7524 44.7747 78.7524H41.9535C41.9433 78.7524 41.9335 78.7515 41.9237 78.7499C41.8388 78.7354 41.7763 78.6617 41.7763 78.5756C41.7763 78.5654 41.7775 78.5557 41.7792 78.5455L41.9106 77.7743C41.9249 77.6895 41.9988 77.6272 42.0849 77.6272H42.1657V77.1379L41.8665 77.1384V75.9114H21.4033H21.1804C21.1971 75.9339 21.2069 75.9618 21.2069 75.9919V76.5321L21.3151 76.4439V76C21.3151 75.9512 21.3543 75.9114 21.4033 75.9114ZM38.7326 39.3365C38.651 39.3246 38.6526 39.3539 38.6942 39.4022L41.7543 42.6647C41.7722 42.6833 41.7849 42.7045 41.7935 42.727L41.8384 42.7198C41.8478 42.7181 41.8571 42.7172 41.8665 42.7172V38.9448C41.8698 38.8701 41.8343 38.8748 41.7767 38.9244L40.9245 39.6061C40.8379 39.6723 40.7343 39.7045 40.6061 39.688L38.7326 39.3365ZM66.8784 51.4628C66.8409 51.4628 66.8242 51.4832 66.8266 51.5213V51.8347C66.8278 51.8529 66.8388 51.8576 66.8539 51.858H75.2361C75.3231 51.858 75.3937 51.9284 75.3937 52.0153V68.9257C75.3937 69.0126 75.3231 69.083 75.2361 69.083H66.8266V69.5332H75.6272C75.7194 69.5332 75.7941 69.4586 75.7941 69.3662V51.6295C75.7941 51.5375 75.7194 51.4628 75.6272 51.4628H66.8784ZM41.8665 69.5332V51.4628H32.8892C32.797 51.4628 32.7223 51.5375 32.7223 51.6295V69.3662C32.7223 69.4586 32.797 69.5332 32.8892 69.5332H41.8665ZM41.8665 45.0719V44.676L10.412 49.6037L19.193 51.2441V48.6299L41.8665 45.0719ZM52.5582 38.974C52.5667 39.0223 52.5973 39.0486 52.6443 39.0588L57.857 39.8724C57.9174 39.8868 57.9358 39.8635 57.9056 39.8024L55.5015 37.084L55.4798 37.0598L52.021 33.1902C51.9814 33.1517 51.9692 33.1656 51.9728 33.2085L52.5582 38.974ZM66.6874 44.6819C66.6617 44.6768 66.6494 44.6853 66.6499 44.7061V44.8583C66.6494 44.8854 66.6629 44.899 66.6899 44.8994L89.3507 48.4552C89.4364 48.4688 89.4997 48.5425 89.4997 48.6299V51.1262C89.4964 51.1856 89.5303 51.2076 89.6021 51.1919L97.8603 49.6491C97.9958 49.6199 97.9566 49.5906 97.8366 49.5618L66.6874 44.6819ZM59.3636 27.5146L52.3892 32.8405C52.3406 32.8812 52.3443 32.9219 52.3863 32.9626L55.6362 36.5985C55.6876 36.6346 55.7394 36.6244 55.7913 36.579L58.3521 34.6618C58.4187 34.622 58.4591 34.5563 58.4701 34.4604L59.5497 27.5765C59.5885 27.4014 59.533 27.3704 59.3636 27.5146ZM45.1588 76.6432H63.2714V44.1863C63.2735 44.146 63.2555 44.121 63.2102 44.1159L45.1935 41.2524C45.1707 41.2482 45.1588 41.2571 45.1588 41.28V76.6432ZM62.0792 70.8378L62.4098 71.0845C62.4237 71.0947 62.4298 71.1112 62.4269 71.1273V71.3126C62.4269 71.3283 62.4143 71.3414 62.3983 71.3414H46.0303C46.0144 71.3414 46.0017 71.3283 46.0017 71.3126V71.1278C46.0017 71.1239 46.0017 71.1201 46.0017 71.1163C46.0021 71.1091 46.0046 71.1023 46.0091 71.0972C46.0115 71.0938 46.0144 71.0909 46.0176 71.0879L46.3201 70.8378C46.3135 70.8255 46.3103 70.8119 46.3103 70.7975V42.1525C46.3103 42.1266 46.3217 42.102 46.3413 42.0851C46.3609 42.0686 46.387 42.0613 46.4127 42.0652L62.0065 44.5793C62.0494 44.5865 62.0808 44.6234 62.0808 44.6666V70.8195C62.0808 70.8259 62.0804 70.8318 62.0792 70.8378ZM60.5644 70.9077L46.4184 70.8882C46.405 70.8861 46.394 70.8891 46.3858 70.898L46.1801 71.068C46.1629 71.0832 46.1686 71.0879 46.185 71.0875H62.2428C62.262 71.0887 62.2616 71.0832 62.2481 71.0739L62.0461 70.923C62.0347 70.9137 62.0204 70.909 62.0024 70.9094L60.8938 70.9081H60.5734C60.5706 70.9081 60.5677 70.9077 60.5644 70.9077ZM56.5664 70.7631C56.5676 70.7992 56.5852 70.817 56.6207 70.8136L57.0893 70.8144C57.1276 70.8153 57.1444 70.7954 57.1378 70.753V51.9271C57.1382 51.8805 57.1146 51.855 57.0595 51.858H48.354C48.2601 51.8491 48.205 51.8911 48.196 51.9937V70.7725C48.1981 70.792 48.2091 70.8021 48.2291 70.8021L48.7924 70.803C48.8099 70.8034 48.8193 70.7966 48.8185 70.7805V52.5189C48.8169 52.4134 48.8646 52.3519 48.9797 52.3515H56.3827C56.5027 52.3472 56.566 52.4007 56.5664 52.5177V70.7631ZM57.4827 51.858C57.4366 51.855 57.4203 51.8766 57.4223 51.9131V70.1645C57.4256 70.2506 57.4815 70.2845 57.5766 70.2862H59.964C60.0334 70.2874 60.0714 70.2561 60.0714 70.184V51.925C60.071 51.8796 60.044 51.8563 59.9877 51.858H57.4827ZM59.9758 51.4484C60.035 51.4501 60.0665 51.4226 60.0669 51.3619V48.7363C60.0677 48.6218 60.0118 48.5409 59.8824 48.504L48.3344 46.976C48.2275 46.9412 48.1907 46.9798 48.196 47.0629V51.3289C48.1944 51.4132 48.2352 51.451 48.3115 51.4484H59.9758ZM63.009 74.8239C63.0106 74.8273 63.0114 74.8311 63.0114 74.8349V75.0486C63.0114 75.0656 62.9975 75.0796 62.9804 75.0796H45.4286C45.4115 75.0796 45.3976 75.0656 45.3976 75.0486V74.8349C45.3976 74.8328 45.3976 74.8311 45.398 74.829C45.3968 74.8146 45.4025 74.7993 45.4148 74.7896L45.7752 74.5038C45.7829 74.4975 45.7927 74.4941 45.8025 74.4945L62.5992 74.5165C62.6085 74.5165 62.6175 74.5195 62.6249 74.5246L62.9906 74.7862C63.0033 74.7951 63.0098 74.8095 63.009 74.8239ZM45.5388 74.804H62.8641L62.5849 74.6047L45.818 74.5827L45.5388 74.804ZM62.6988 73.1666H45.6895C45.6744 73.1666 45.6625 73.1547 45.6625 73.1399V72.9529C45.6625 72.9419 45.6694 72.9317 45.6797 72.9279C45.6821 72.9241 45.685 72.9203 45.689 72.9173L46.0376 72.6311C46.0458 72.6248 46.0556 72.6214 46.0658 72.6214H46.1119C46.0491 72.607 46.0017 72.5506 46.0017 72.4832V71.5102C46.0017 71.4317 46.065 71.3686 46.1433 71.3686H62.2857C62.3637 71.3686 62.4269 71.4317 62.4269 71.5102V72.4832C62.4269 72.5612 62.3637 72.6248 62.2857 72.6248H48.6246L62.3175 72.6434C62.3269 72.6434 62.3363 72.6464 62.3437 72.6519L62.6975 72.9135C62.7032 72.9178 62.7077 72.9228 62.7106 72.9288C62.7196 72.933 62.7261 72.9423 62.7261 72.9529V73.1399C62.7261 73.1547 62.7139 73.1666 62.6988 73.1666ZM45.8176 72.9262H62.5661L62.3028 72.7316L46.0817 72.7096L45.8176 72.9262ZM62.7261 73.3375V74.3207C62.7261 74.3995 62.662 74.4635 62.5832 74.4635H45.8054C45.7266 74.4635 45.6625 74.3995 45.6625 74.3207V73.3375C45.6625 73.2582 45.7266 73.1942 45.8054 73.1942H62.5832C62.662 73.1942 62.7261 73.2582 62.7261 73.3375ZM63.0114 75.25V76.2336C63.0114 76.3125 62.9473 76.3765 62.8681 76.3765H45.5405C45.4617 76.3765 45.3976 76.3125 45.3976 76.2336V75.25C45.3976 75.1711 45.4617 75.1071 45.5405 75.1071H62.8681C62.9473 75.1071 63.0114 75.1711 63.0114 75.25ZM87.0115 76.0878V76.4439L87.1192 76.5321V76.0878H87.0115ZM51.6214 33.2462C51.6169 33.1877 51.5867 33.1801 51.5304 33.222L45.2858 37.7716C45.1772 37.8505 45.1972 37.895 45.3111 37.9145L52.1361 38.9795C52.1802 38.9897 52.2006 38.9727 52.1981 38.9265L51.6214 33.2462ZM86.8355 76.4977H86.78L87.187 76.8484H88.8944L88.7997 76.767C88.7756 76.8043 88.734 76.8289 88.6862 76.8289H87.2543C87.2266 76.8289 87.2009 76.8204 87.1792 76.806C87.1723 76.803 87.1658 76.7988 87.1596 76.7937L86.867 76.5537C86.8498 76.5397 86.8388 76.5194 86.8355 76.4977ZM63.8906 78.2233L63.8608 78.3988H66.2637L66.2339 78.2233C66.2005 78.2788 66.1396 78.3161 66.0702 78.3161H64.0543C63.9849 78.3161 63.9241 78.2788 63.8906 78.2233ZM42.1926 78.2233L42.1624 78.3988H44.5654L44.5356 78.2233C44.5025 78.2788 44.4413 78.3161 44.3719 78.3161H42.3559C42.2865 78.3161 42.2257 78.2788 42.1926 78.2233ZM21.4906 76.4977C21.4878 76.5194 21.4767 76.5397 21.4592 76.5537L21.1669 76.7937C21.1608 76.7988 21.1539 76.803 21.1469 76.806C21.1253 76.8204 21.0996 76.8289 21.0718 76.8289H19.64C19.5926 76.8289 19.5506 76.8043 19.5265 76.767L19.4322 76.8484H21.1396L21.5461 76.4977H21.4906ZM32.2112 46.9489V50.2842H41.5139V45.5413L32.2112 46.9489ZM32.6353 47.3135L41.0898 46.0339V49.8602H32.6353V47.3135ZM19.5477 48.8881L19.5485 50.2842H31.5773V47.0693L19.5477 48.8881ZM19.9012 49.1921L31.2239 47.4801V49.9306H19.9016L19.9012 49.1921ZM30.9847 51.6295C30.9847 51.5375 30.91 51.4628 30.8177 51.4628H21.122C21.0302 51.4628 20.9551 51.5375 20.9551 51.6295V69.3662C20.9551 69.4586 21.0302 69.5332 21.122 69.5332H30.8177C30.91 69.5332 30.9847 69.4586 30.9847 69.3662V51.6295ZM76.3051 47.0197C76.3047 46.9692 76.279 46.9433 76.2333 46.9378L67.0417 45.5468C67.0139 45.5408 67.0021 45.5523 67.0025 45.5782V50.2376C67.0029 50.2736 67.0221 50.2863 67.0535 50.2842H76.2382C76.2811 50.2855 76.3064 50.2685 76.3051 50.2227V47.0197ZM75.779 47.2978C75.8508 47.3101 75.8831 47.3482 75.8811 47.4097V49.7674C75.8831 49.8314 75.848 49.8602 75.7823 49.8602H67.4997C67.4633 49.8594 67.4307 49.8471 67.4266 49.8056V46.0708C67.4295 46.0466 67.4442 46.0352 67.4735 46.0411L75.779 47.2978ZM88.9687 48.9296C88.9687 48.9084 88.9593 48.8915 88.9327 48.8826L77.0545 47.0866C76.975 47.0748 76.9403 47.1066 76.939 47.1714V50.2431C76.9439 50.2736 76.9627 50.2842 76.9884 50.2842H88.8735C88.938 50.2825 88.9703 50.252 88.9678 50.1897L88.9687 48.9296ZM88.565 49.1844C88.5948 49.1899 88.6111 49.2082 88.6152 49.2374L88.6148 49.8869C88.6131 49.9149 88.5989 49.9285 88.5744 49.9306H77.3652C77.3227 49.9281 77.2986 49.9094 77.2925 49.8755V47.5433C77.2954 47.5038 77.3174 47.4843 77.3648 47.4911L88.565 49.1844ZM77.5317 51.6295V69.3662C77.5317 69.4586 77.6064 69.5332 77.6986 69.5332H87.3943C87.4862 69.5332 87.5613 69.4586 87.5613 69.3662V51.6295C87.5613 51.5375 87.4862 51.4628 87.3943 51.4628H77.6986C77.6064 51.4628 77.5317 51.5375 77.5317 51.6295ZM87.076 52.0153V68.9257C87.076 69.0126 87.0054 69.083 86.9184 69.083H78.144C78.057 69.083 77.9864 69.0126 77.9864 68.9257V52.0153C77.9864 51.9284 78.057 51.858 78.144 51.858H86.9184C87.0054 51.858 87.076 51.9284 87.076 52.0153ZM66.9429 52.6088C66.8748 52.6105 66.8319 52.6419 66.8266 52.7178V60.3903C66.8327 60.4616 66.8764 60.4946 66.9548 60.4917H73.8586C74.0512 60.4917 74.2071 60.3356 74.2071 60.1432V52.9578C74.2071 52.7653 74.0512 52.6088 73.8586 52.6088H66.9429Z" fill="#FFF1CF"/>
</g>
<path fill-rule="evenodd" clip-rule="evenodd" d="M56.7585 52.4698V70.5814C56.7585 70.7032 56.6593 70.8026 56.5372 70.8026H48.7955C48.6734 70.8026 48.5742 70.7032 48.5742 70.5814V52.4698C48.5742 52.3476 48.6734 52.2485 48.7955 52.2485H56.5372C56.6593 52.2485 56.7585 52.3476 56.7585 52.4698Z" fill="#F8961D"/>
</g>
<defs>
<filter id="filter0_d_499_128" x="-11.91" y="6.57727" width="132.336" height="92.1752" filterUnits="userSpaceOnUse" color-interpolation-filters="sRGB">
<feFlood flood-opacity="0" result="BackgroundImageFix"/>
<feColorMatrix in="SourceAlpha" type="matrix" values="0 0 0 0 0 0 0 0 0 0 0 0 0 0 0 0 0 0 127 0" result="hardAlpha"/>
<feOffset/>
<feGaussianBlur stdDeviation="10"/>
<feComposite in2="hardAlpha" operator="out"/>
<feColorMatrix type="matrix" values="0 0 0 0 1 0 0 0 0 0.945098 0 0 0 0 0.811765 0 0 0 0.52 0"/>
<feBlend mode="normal" in2="BackgroundImageFix" result="effect1_dropShadow_499_128"/>
<feBlend mode="normal" in="SourceGraphic" in2="effect1_dropShadow_499_128" result="shape"/>
</filter>
<clipPath id="clip0_499_128">
<rect width="109" height="109" fill="white"/>
</clipPath>
</defs>
</svg>
