<svg width="109" height="110" viewBox="0 0 109 110" fill="none" xmlns="http://www.w3.org/2000/svg">
<g clip-path="url(#clip0_499_158)">
<path d="M54.2564 108.764C84.2218 108.764 108.514 84.4719 108.514 54.5065C108.514 24.5411 84.2218 0.24939 54.2564 0.24939C24.291 0.24939 -0.000732422 24.5411 -0.000732422 54.5065C-0.000732422 84.4719 24.291 108.764 54.2564 108.764Z" fill="#183564"/>
<mask id="mask0_499_158" style="mask-type:luminance" maskUnits="userSpaceOnUse" x="-1" y="0" width="110" height="109">
<path d="M54.2564 108.764C84.2218 108.764 108.514 84.4719 108.514 54.5065C108.514 24.5411 84.2218 0.24939 54.2564 0.24939C24.291 0.24939 -0.000732422 24.5411 -0.000732422 54.5065C-0.000732422 84.4719 24.291 108.764 54.2564 108.764Z" fill="white"/>
</mask>
<g mask="url(#mask0_499_158)">
<path fill-rule="evenodd" clip-rule="evenodd" d="M73.0921 54.4916L107.467 38.923C107.467 38.923 107.785 38.7451 108.06 38.8413C108.221 38.8974 108.398 39.0296 108.463 39.2604C113.632 57.9307 108.159 79.5071 94.0577 93.613C93.9119 93.7588 93.7764 93.831 93.6017 93.8718C93.3677 93.9271 93.0062 93.8214 93.0062 93.8214L72.9903 86.7804C72.3371 86.4663 72.0197 85.5478 71.9195 84.239L71.647 57.5476C71.5741 56.0585 72.063 54.9877 73.0921 54.4916Z" fill="#FFB45C"/>
<path fill-rule="evenodd" clip-rule="evenodd" d="M35.4202 54.4916L1.04508 38.923C1.04508 38.923 0.726902 38.7451 0.451996 38.8413C0.291702 38.8974 0.113777 39.0296 0.0496597 39.2604C-5.11982 57.9307 0.353409 79.5071 14.4545 93.613C14.6004 93.7588 14.7358 93.831 14.9105 93.8718C15.1445 93.9271 15.506 93.8214 15.506 93.8214L35.5219 86.7804C36.1751 86.4663 36.4925 85.5478 36.5927 84.239L36.8652 57.5476C36.9381 56.0585 36.4492 54.9877 35.4202 54.4916Z" fill="#FFB45C"/>
</g>
<path fill-rule="evenodd" clip-rule="evenodd" d="M54.2557 94.9112L47.7112 94.9242C47.6661 94.9258 47.6221 94.9161 47.5839 94.8883L46.9628 94.4804C46.9061 94.4347 46.8344 94.4005 46.7372 94.3825C46.7372 94.3825 39.3669 92.764 36.1767 92.0673C34.3469 91.6659 35.2618 88.5577 37.0986 88.9281C37.8909 89.088 38.6694 88.7731 39.102 88.6523C39.6502 88.499 40.069 88.2983 40.3304 88.0682C40.3408 88.0601 40.3778 88.0307 40.3639 88.0062C40.3558 87.9899 40.276 87.9752 40.276 87.9752L37.0269 87.4319C37.0269 87.4319 36.9586 87.4139 36.9459 87.3748C36.9274 87.321 36.9425 87.2851 36.9748 87.2231C37.2374 86.7271 37.9106 85.226 37.9106 82.8765V58.2474C37.9106 57.3435 37.8747 56.2079 37.4861 55.4182C36.6151 53.6496 34.9206 52.5319 34.2185 52.1257C34.2104 52.1224 34.2011 52.1175 34.1942 52.1126C34.1005 52.0474 34.1549 51.9543 34.2358 51.9543H35.2838C35.2838 51.9543 35.3532 51.9576 35.3671 51.9462C35.3798 51.9364 35.3867 51.9299 35.3659 51.8842C35.2421 51.615 34.8477 50.6132 35.3393 49.6473C35.6666 49.0028 36.2716 48.9016 36.4833 48.683C36.5654 48.5998 36.6128 48.4888 36.6475 48.3697C36.8499 47.6861 37.6851 45.2012 39.7486 42.7668C42.2435 39.8234 46.588 36.6695 49.4728 36.6679C51.8752 36.6679 54.2557 36.6679 54.2557 36.6679C54.2557 36.6679 56.6373 36.6679 59.0397 36.6679C61.9245 36.6695 66.269 39.8234 68.7639 42.7668C70.8275 45.2012 71.6626 47.6861 71.865 48.3697C71.8997 48.4888 71.9471 48.5998 72.0281 48.683C72.2409 48.9016 72.8459 49.0028 73.1732 49.6473C73.6636 50.6132 73.2704 51.615 73.1466 51.8842C73.1258 51.9299 73.1327 51.9364 73.1455 51.9462C73.1582 51.9576 73.2276 51.9543 73.2276 51.9543H74.2767C74.3577 51.9543 74.412 52.0474 74.3183 52.1126C74.3102 52.1175 74.3021 52.1224 74.294 52.1257C73.5919 52.5319 71.8974 53.6496 71.0264 55.4182C70.6378 56.2079 70.6008 57.3435 70.6008 58.2474V82.8765C70.6008 85.226 71.2751 86.7271 71.5377 87.2231C71.5701 87.2851 71.5851 87.321 71.5666 87.3748C71.5539 87.4139 71.4856 87.4319 71.4856 87.4319L68.2365 87.9752C68.2365 87.9752 68.1567 87.9899 68.1474 88.0062C68.1347 88.0307 68.1717 88.0601 68.181 88.0682C68.4435 88.2983 68.8623 88.499 69.4094 88.6523C69.8431 88.7731 70.6216 89.088 71.4139 88.9281C73.2507 88.5577 74.1656 91.6659 72.3358 92.0673C69.1456 92.764 61.7753 94.3825 61.7753 94.3825C61.6781 94.4005 61.6064 94.4347 61.5497 94.4804L60.9286 94.8883C60.8893 94.9161 60.8465 94.9258 60.8013 94.9242L54.2557 94.9112ZM54.2557 54.5062H46.6065L38.4288 53.816C38.4288 53.816 38.3097 53.8095 38.2935 53.8372C38.2773 53.8633 38.2564 53.865 38.3328 53.9759C38.6 54.361 39.198 56.0464 39.2107 58.5558C39.2315 62.9889 39.2824 77.4351 39.2824 82.4425C39.2824 84.6174 39.1864 86.0695 38.8718 86.6063C38.851 86.6422 38.8464 86.6618 38.8568 86.6863C38.866 86.7091 38.9215 86.7205 38.9215 86.7205L46.4423 87.9834C46.4423 87.9834 46.5117 87.9964 46.558 87.9654C46.6042 87.9344 46.6031 87.8757 46.6031 87.8757V55.2942C46.6031 55.242 46.6447 55.1996 46.6968 55.1996H48.4248C48.4769 55.1996 48.5197 55.242 48.5197 55.2942V88.4402C48.5197 88.4402 48.5185 88.5267 48.5798 88.5887C48.6539 88.6621 48.7557 88.6687 48.7557 88.6687L54.2557 88.6572L59.7569 88.6687C59.7569 88.6687 59.8586 88.6621 59.9327 88.5887C59.994 88.5267 59.9928 88.4402 59.9928 88.4402V55.2942C59.9928 55.242 60.0356 55.1996 60.0877 55.1996H61.8158C61.8678 55.1996 61.9094 55.242 61.9094 55.2942V87.8757C61.9094 87.8757 61.9083 87.9344 61.9546 87.9654C62.0008 87.9964 62.0702 87.9834 62.0702 87.9834L69.591 86.7205C69.591 86.7205 69.6465 86.7091 69.6557 86.6863C69.6662 86.6618 69.6604 86.6422 69.6395 86.6063C69.3261 86.0695 69.2301 84.6174 69.2301 82.4425C69.2301 77.4351 69.2798 62.9889 69.3018 58.5558C69.3145 56.0464 69.9125 54.361 70.1797 53.9759C70.2561 53.865 70.2352 53.8633 70.219 53.8372C70.2029 53.8095 70.0826 53.816 70.0826 53.816L61.8909 54.5062H54.2557ZM54.2557 89.3963L48.3693 89.4306C48.315 89.4322 48.2745 89.4535 48.2456 89.491L47.1953 90.8224C47.1641 90.8648 47.1803 90.8795 47.2265 90.8778L54.2557 90.8142L61.286 90.8778C61.3323 90.8795 61.3485 90.8648 61.3161 90.8224L60.1177 89.4894C60.0888 89.4535 60.0483 89.4306 59.994 89.4306L54.2557 89.3963ZM41.1713 88.1384C41.1377 88.1433 41.11 88.1645 41.0753 88.1873C40.7468 88.4092 40.1372 88.8155 39.7555 88.9395C39.4964 89.0243 39.1934 89.0912 38.9794 89.132C38.9239 89.1435 38.9227 89.1532 38.9239 89.1614C38.9273 89.1761 38.9898 89.1842 38.9898 89.1842L46.1786 90.3851C46.285 90.4047 46.3671 90.3655 46.4319 90.2839L47.3156 89.2152C47.3399 89.1777 47.3214 89.1532 47.2612 89.1434L41.3055 88.1465C41.3055 88.1465 41.2095 88.1319 41.1713 88.1384ZM67.3412 88.1384C67.3031 88.1319 67.2071 88.1465 67.2071 88.1465L61.2513 89.1434C61.19 89.1532 61.1726 89.1777 61.1969 89.2152L62.0795 90.2839C62.1443 90.3655 62.2275 90.4047 62.3339 90.3851L69.5227 89.1842C69.5227 89.1842 69.5852 89.1761 69.5887 89.1614C69.5898 89.1532 69.5887 89.1435 69.5331 89.132C69.3192 89.0912 69.0149 89.0243 68.757 88.9395C68.3753 88.8155 67.7646 88.4092 67.4361 88.1873C67.4025 88.1645 67.3748 88.1433 67.3412 88.1384ZM48.9014 27.9812C47.2901 26.5209 46.2769 24.4113 46.2769 22.0667C46.2769 17.663 49.8522 14.0881 54.2557 14.0881C58.6603 14.0881 62.2356 17.663 62.2356 22.0667C62.2356 24.4113 61.2224 26.5209 59.6111 27.9812C61.1472 29.3811 61.7406 30.9214 61.921 31.1759C61.9384 31.2004 61.9557 31.22 61.9626 31.2395C61.965 31.2477 61.9638 31.2575 61.9638 31.2673C61.965 31.3945 61.9673 32.0961 61.9673 32.0961C61.9673 32.0961 61.9696 32.132 61.9499 32.15C61.9337 32.1679 61.8909 32.1663 61.8909 32.1663H54.2557H46.6204C46.6204 32.1663 46.5788 32.1679 46.5614 32.15C46.5429 32.132 46.5452 32.0961 46.5452 32.0961C46.5452 32.0961 46.5475 31.3945 46.5475 31.2673C46.5475 31.2575 46.5475 31.2477 46.5499 31.2395C46.5556 31.22 46.5741 31.2004 46.5915 31.1759C46.7719 30.9214 47.3653 29.3811 48.9014 27.9812ZM58.3041 26.999C59.7279 25.8275 60.6371 24.0523 60.6371 22.0667C60.6371 18.5457 57.7778 15.6871 54.2557 15.6871C50.7347 15.6871 47.8754 18.5457 47.8754 22.0667C47.8754 24.0523 48.7846 25.8275 50.2085 26.999C51.0517 26.4802 52.0811 26.0461 53.3338 25.7981C53.6102 25.7427 53.8508 25.6448 54.0186 25.5452C54.0776 25.5094 54.2557 25.4784 54.2557 25.4784C54.2557 25.4784 54.435 25.5094 54.4939 25.5452C54.6617 25.6448 54.9023 25.7427 55.1787 25.7981C56.4314 26.0461 57.4608 26.4802 58.3041 26.999ZM60.5469 33.1795H47.9656C47.9656 33.1795 47.865 33.1762 47.8569 33.1893C47.85 33.204 47.8442 33.2072 47.9171 33.2611C48.1368 33.4242 48.6053 33.8191 48.832 34.3771C49.0795 34.9857 49.0529 35.7672 49.039 35.9989C49.0356 36.043 49.0333 36.0479 49.0217 36.0593C49.0101 36.0691 48.9685 36.0658 48.9685 36.0658L48.485 36.056C48.485 36.056 48.4503 36.056 48.441 36.0446C48.4306 36.0348 48.4248 36.0332 48.4272 35.9924C48.4399 35.7379 48.4676 34.7687 48.1692 34.3069C47.629 33.4683 46.8714 33.0196 46.7234 32.938C46.706 32.9282 46.7072 32.9299 46.7025 32.9233C46.6979 32.9168 46.6968 32.8989 46.6968 32.8989L46.6921 32.721C46.6921 32.6835 46.7129 32.6656 46.7523 32.6656H61.7602C61.7996 32.6656 61.8204 32.6835 61.8204 32.721L61.8158 32.8989C61.8158 32.8989 61.8146 32.9168 61.81 32.9233C61.8053 32.9299 61.8053 32.9282 61.7891 32.938C61.6411 33.0196 60.8835 33.4683 60.3433 34.3069C60.0449 34.7687 60.0726 35.7379 60.0854 35.9924C60.0865 36.0332 60.0819 36.0348 60.0715 36.0446C60.0622 36.056 60.0264 36.056 60.0264 36.056L59.544 36.0658C59.544 36.0658 59.5024 36.0691 59.4908 36.0593C59.4793 36.0479 59.4769 36.043 59.4735 35.9989C59.4596 35.7672 59.433 34.9857 59.6794 34.3771C59.9072 33.8191 60.3757 33.4242 60.5955 33.2611C60.6683 33.2072 60.6625 33.204 60.6544 33.1893C60.6463 33.1762 60.5469 33.1795 60.5469 33.1795ZM53.1383 34.0263C53.1383 33.9872 53.1707 33.9529 53.2112 33.9529H53.8798C53.9202 33.9529 53.9538 33.9872 53.9538 34.0263V36.0103C53.9538 36.0511 53.9202 36.0838 53.8798 36.0838H53.2112C53.1707 36.0838 53.1383 36.0511 53.1383 36.0103V34.0263ZM51.578 34.0263C51.578 33.9872 51.6115 33.9529 51.652 33.9529H52.2245C52.346 33.9529 52.5311 34.6757 52.5924 35.0183C52.6502 35.3398 52.5924 36.0103 52.5924 36.0103C52.5924 36.0511 52.56 36.0838 52.5195 36.0838H51.8509C51.8105 36.0838 51.7769 36.0511 51.7769 36.0103C51.7769 36.0103 51.8104 35.3463 51.7769 35.0183C51.7445 34.6887 51.578 34.0263 51.578 34.0263ZM50.3137 34.0263C50.3137 33.9872 50.3472 33.9529 50.3877 33.9529H50.7139C50.8354 33.9529 51.3235 34.8372 51.3096 35.4132C51.3015 35.7444 51.3096 36.0103 51.3096 36.0103C51.3096 36.0511 51.2772 36.0838 51.2367 36.0838H50.7035C50.663 36.0838 50.6295 36.0511 50.6295 36.0103C50.6295 36.0103 50.707 35.3398 50.6295 35.0183C50.5115 34.5288 50.3137 34.0263 50.3137 34.0263ZM49.1929 34.0263C49.1929 33.9872 49.2264 33.9529 49.2669 33.9529C49.5468 33.9529 50.1055 34.8372 50.0916 35.4132C50.0835 35.7444 50.0916 36.0103 50.0916 36.0103C50.0916 36.0511 50.0592 36.0838 50.0188 36.0838H49.6498C49.6093 36.0838 49.5757 36.0511 49.5757 36.0103C49.5757 36.0103 49.6532 35.3398 49.5757 35.0183C49.4578 34.5288 49.1929 34.0263 49.1929 34.0263ZM55.3742 34.0263V36.0103C55.3742 36.0511 55.3418 36.0838 55.3013 36.0838H54.6328C54.5923 36.0838 54.5587 36.0511 54.5587 36.0103V34.0263C54.5587 33.9872 54.5923 33.9529 54.6328 33.9529H55.3013C55.3418 33.9529 55.3742 33.9872 55.3742 34.0263ZM56.9334 34.0263C56.9334 34.0263 56.768 34.6887 56.7356 35.0183C56.7021 35.3463 56.7356 36.0103 56.7356 36.0103C56.7356 36.0511 56.7021 36.0838 56.6616 36.0838H55.993C55.9525 36.0838 55.9201 36.0511 55.9201 36.0103C55.9201 36.0103 55.8623 35.3398 55.9201 35.0183C55.9814 34.6757 56.1665 33.9529 56.288 33.9529H56.8605C56.901 33.9529 56.9334 33.9872 56.9334 34.0263ZM58.1977 34.0263C58.1977 34.0263 58.001 34.5288 57.883 35.0183C57.8044 35.3398 57.883 36.0103 57.883 36.0103C57.883 36.0511 57.8495 36.0838 57.809 36.0838H57.2758C57.2353 36.0838 57.2029 36.0511 57.2029 36.0103C57.2029 36.0103 57.2098 35.7444 57.2029 35.4132C57.189 34.8372 57.676 33.9529 57.7974 33.9529H58.1248C58.1653 33.9529 58.1977 33.9872 58.1977 34.0263ZM59.3185 34.0263C59.3185 34.0263 59.0548 34.5288 58.9368 35.0183C58.8593 35.3398 58.9368 36.0103 58.9368 36.0103C58.9368 36.0511 58.9032 36.0838 58.8627 36.0838H58.4938C58.4533 36.0838 58.4209 36.0511 58.4209 36.0103C58.4209 36.0103 58.4278 35.7444 58.4209 35.4132C58.407 34.8372 58.9657 33.9529 59.2456 33.9529C59.2861 33.9529 59.3185 33.9872 59.3185 34.0263Z" fill="#FFF1CF"/>
<path fill-rule="evenodd" clip-rule="evenodd" d="M49.5428 69.3418V58.9919C50.1335 59.2492 51.2371 59.6631 51.2371 59.6631C51.2371 59.6631 52.0161 61.7213 52.0987 61.7213C52.1812 61.7213 52.9603 59.6631 52.9603 59.6631C52.9603 59.6631 55.0177 58.8716 55.0177 58.8017C55.0177 58.7318 52.9603 57.9404 52.9603 57.9404C52.9603 57.9404 52.1676 55.8822 52.0987 55.8822C52.0298 55.8822 51.2371 57.9404 51.2371 57.9404C51.2371 57.9404 50.1335 58.3543 49.5428 58.6116V55.871C49.5428 55.4627 49.8746 55.1299 50.2834 55.1299H58.2291C58.6379 55.1299 58.9697 55.4627 58.9697 55.871V56.5421C58.7076 56.4359 58.4103 56.3212 58.4103 56.3212C58.4103 56.3212 58.0432 55.3704 58.0112 55.3704C57.9791 55.3704 57.6128 56.3212 57.6128 56.3212C57.6128 56.3212 56.6599 56.6792 56.6599 56.7211C56.6599 56.7631 57.6128 57.121 57.6128 57.121C57.6128 57.121 57.9727 58.0718 58.0112 58.0718C58.0496 58.0718 58.4103 57.121 58.4103 57.121C58.4103 57.121 58.7076 57.0064 58.9697 56.9001V73.7742C58.4007 73.5309 57.4149 73.1506 57.4149 73.1506C57.4149 73.1506 56.6775 71.2042 56.5998 71.2042C56.5212 71.2042 55.7839 73.1506 55.7839 73.1506C55.7839 73.1506 53.8355 73.8833 53.8355 73.9672C53.8355 74.0511 55.7839 74.7838 55.7839 74.7838C55.7839 74.7838 56.534 76.7301 56.5998 76.7301C56.6647 76.7301 57.4149 74.7838 57.4149 74.7838C57.4149 74.7838 58.4007 74.4034 58.9697 74.1601V86.4004C58.8415 86.3361 58.3021 86.1292 58.3021 86.1292C58.3021 86.1292 58.0344 85.4329 58.0112 85.4329C57.9879 85.4329 57.7202 86.1292 57.7202 86.1292C57.7202 86.1292 57.0253 86.3893 57.0253 86.42C57.0253 86.448 57.7202 86.7109 57.7202 86.7109C57.7202 86.7109 57.9831 87.4044 58.0112 87.4044C58.0392 87.4044 58.3021 86.7109 58.3021 86.7109C58.3021 86.7109 58.8415 86.5039 58.9697 86.4368V87.2841C58.9697 87.6924 58.6379 88.0224 58.2291 88.0224H50.2834C49.8746 88.0224 49.5428 87.6924 49.5428 87.2841V84.7729C50.1399 85.0302 51.2067 85.4301 51.2067 85.4301C51.2067 85.4301 51.9993 87.4883 52.0682 87.4883C52.138 87.4883 52.9306 85.4301 52.9306 85.4301C52.9306 85.4301 54.9872 84.6386 54.9872 84.5687C54.9872 84.4988 52.9306 83.7074 52.9306 83.7074C52.9306 83.7074 52.1516 81.6492 52.0682 81.6492C51.9857 81.6492 51.2067 83.7074 51.2067 83.7074C51.2067 83.7074 50.1399 84.1073 49.5428 84.3646V69.7808C50.1848 70.0577 51.3333 70.4883 51.3333 70.4883C51.3333 70.4883 52.1861 72.7004 52.2598 72.7004C52.3343 72.7004 53.1871 70.4883 53.1871 70.4883C53.1871 70.4883 55.4008 69.6354 55.4008 69.5599C55.4008 69.4872 53.1871 68.6342 53.1871 68.6342C53.1871 68.6342 52.3496 66.4194 52.2598 66.4194C52.1708 66.4194 51.3333 68.6342 51.3333 68.6342C51.3333 68.6342 50.1848 69.0649 49.5428 69.3418ZM50.939 80.5194C50.967 80.5194 51.2299 79.8231 51.2299 79.8231C51.2299 79.8231 51.9248 79.5546 51.9248 79.5322C51.9248 79.5098 51.2299 79.2414 51.2299 79.2414C51.2299 79.2414 50.9622 78.5479 50.939 78.5479C50.9149 78.5479 50.648 79.2414 50.648 79.2414C50.648 79.2414 49.9532 79.5015 49.9532 79.5322C49.9532 79.563 50.648 79.8231 50.648 79.8231C50.648 79.8231 50.9109 80.5194 50.939 80.5194ZM56.203 84.5687C56.2704 84.5687 56.9019 82.8992 56.9019 82.8992C56.9019 82.8992 58.5706 82.256 58.5706 82.2001C58.5706 82.1442 56.9019 81.501 56.9019 81.501C56.9019 81.501 56.2591 79.8342 56.203 79.8342C56.1469 79.8342 55.5041 81.501 55.5041 81.501C55.5041 81.501 53.8355 82.1274 53.8355 82.2001C53.8355 82.2728 55.5041 82.8992 55.5041 82.8992C55.5041 82.8992 56.1357 84.5687 56.203 84.5687ZM51.4984 76.7301C51.5409 76.7301 51.9424 75.6703 51.9424 75.6703C51.9424 75.6703 53.002 75.2619 53.002 75.2284C53.002 75.192 51.9424 74.7838 51.9424 74.7838C51.9424 74.7838 51.5337 73.7239 51.4984 73.7239C51.4623 73.7239 51.0544 74.7838 51.0544 74.7838C51.0544 74.7838 49.9948 75.1809 49.9948 75.2284C49.9948 75.2731 51.0544 75.6703 51.0544 75.6703C51.0544 75.6703 51.4559 76.7301 51.4984 76.7301ZM55.6436 59.3526C55.5763 59.3526 54.9447 61.0222 54.9447 61.0222C54.9447 61.0222 53.2761 61.6486 53.2761 61.7213C53.2761 61.794 54.9447 62.4204 54.9447 62.4204C54.9447 62.4204 55.5875 64.0899 55.6436 64.0899C55.6997 64.0899 56.3425 62.4204 56.3425 62.4204C56.3425 62.4204 58.0112 61.7772 58.0112 61.7213C58.0112 61.6653 56.3425 61.0222 56.3425 61.0222C56.3425 61.0222 55.7109 59.3526 55.6436 59.3526ZM54.9872 76.059C54.9375 76.059 54.4694 77.295 54.4694 77.295C54.4694 77.295 53.232 77.7592 53.232 77.8152C53.232 77.8683 54.4694 78.3325 54.4694 78.3325C54.4694 78.3325 54.9463 79.5714 54.9872 79.5714C55.0289 79.5714 55.5058 78.3325 55.5058 78.3325C55.5058 78.3325 56.7432 77.8571 56.7432 77.8152C56.7432 77.7732 55.5058 77.295 55.5058 77.295C55.5058 77.295 55.0377 76.059 54.9872 76.059ZM56.8154 68.6594C56.865 68.6594 57.3331 67.4234 57.3331 67.4234C57.3331 67.4234 58.5706 66.9451 58.5706 66.9032C58.5706 66.8612 57.3331 66.3859 57.3331 66.3859C57.3331 66.3859 56.8562 65.147 56.8154 65.147C56.7737 65.147 56.2968 66.3859 56.2968 66.3859C56.2968 66.3859 55.0593 66.8501 55.0593 66.9032C55.0593 66.9591 56.2968 67.4234 56.2968 67.4234C56.2968 67.4234 56.7649 68.6594 56.8154 68.6594ZM51.1442 65.2812C51.1778 65.2812 51.496 64.4395 51.496 64.4395C51.496 64.4395 52.3359 64.1179 52.3359 64.0899C52.3359 64.0592 51.496 63.7376 51.496 63.7376C51.496 63.7376 51.173 62.8986 51.1442 62.8986C51.1161 62.8986 50.7923 63.7376 50.7923 63.7376C50.7923 63.7376 49.9532 64.0536 49.9532 64.0899C49.9532 64.1263 50.7923 64.4395 50.7923 64.4395C50.7923 64.4395 51.1105 65.2812 51.1442 65.2812ZM62.5731 68.363L62.5739 62.3952C63.0628 62.5994 63.8218 62.8846 63.8218 62.8846C63.8218 62.8846 64.447 64.5346 64.5135 64.5346C64.58 64.5346 65.2043 62.8846 65.2043 62.8846C65.2043 62.8846 66.8554 62.2498 66.8554 62.1939C66.8554 62.138 65.2043 61.5031 65.2043 61.5031C65.2043 61.5031 64.5688 59.8504 64.5135 59.8504C64.4582 59.8504 63.8218 61.5031 63.8218 61.5031C63.8218 61.5031 63.0628 61.7884 62.5739 61.9925V59.1597C62.7318 59.224 62.9178 59.2939 62.9178 59.2939C62.9178 59.2939 63.1325 59.8504 63.151 59.8504C63.1702 59.8504 63.385 59.2939 63.385 59.2939C63.385 59.2939 63.942 59.0786 63.942 59.0618C63.942 59.0422 63.385 58.8269 63.385 58.8269C63.385 58.8269 63.1734 58.2704 63.151 58.2704C63.1285 58.2704 62.9178 58.8269 62.9178 58.8269C62.9178 58.8269 62.7318 58.8968 62.5739 58.9611L62.5747 55.8039C62.5747 55.4012 62.8905 55.074 63.28 55.074L68.1329 54.5063C68.5216 54.5063 68.8374 54.8335 68.8374 55.2362L68.827 57.2441C68.395 57.0455 67.2056 56.5869 67.2056 56.5869C67.2056 56.5869 66.522 54.8111 66.4619 54.8111C66.4025 54.8111 65.7181 56.5869 65.7181 56.5869C65.7181 56.5869 63.942 57.2553 63.942 57.3308C63.942 57.4091 65.7181 58.0746 65.7181 58.0746C65.7181 58.0746 66.3905 59.8504 66.4619 59.8504C66.5332 59.8504 67.2056 58.0746 67.2056 58.0746C67.2056 58.0746 68.3934 57.6188 68.8262 57.4175L68.7805 66.3327C68.4062 66.1677 67.6424 65.8741 67.6424 65.8741C67.6424 65.8741 67.1359 64.5346 67.0822 64.5346C67.0285 64.5346 66.5212 65.8741 66.5212 65.8741C66.5212 65.8741 65.1827 66.3775 65.1827 66.4362C65.1827 66.4949 66.5212 66.9955 66.5212 66.9955C66.5212 66.9955 67.0373 68.335 67.0822 68.335C67.1271 68.335 67.6424 66.9955 67.6424 66.9955C67.6424 66.9955 68.4054 66.7019 68.7797 66.5397L68.7388 74.3811C68.3028 74.1909 67.4092 73.8469 67.4092 73.8469C67.4092 73.8469 66.8073 72.2837 66.7544 72.2837C66.7023 72.2837 66.1004 73.8469 66.1004 73.8469C66.1004 73.8469 64.5367 74.4342 64.5367 74.5013C64.5367 74.5712 66.1004 75.1557 66.1004 75.1557C66.1004 75.1557 66.6919 76.7189 66.7544 76.7189C66.8177 76.7189 67.4092 75.1557 67.4092 75.1557C67.4092 75.1557 68.3012 74.8117 68.738 74.6216L68.6819 85.4748C68.6819 85.8775 68.3662 86.2047 67.9766 86.2047L63.276 86.9877C62.8865 86.9877 62.5707 86.6605 62.5707 86.2578L62.5723 78.0109C63.0981 78.2318 63.8763 78.5227 63.8763 78.5227C63.8763 78.5227 64.5487 80.2985 64.6201 80.2985C64.6914 80.2985 65.3638 78.5227 65.3638 78.5227C65.3638 78.5227 67.1399 77.8375 67.1399 77.7788C67.1399 77.7201 65.3638 77.0349 65.3638 77.0349C65.3638 77.0349 64.6794 75.2592 64.6201 75.2592C64.56 75.2592 63.8763 77.0349 63.8763 77.0349C63.8763 77.0349 63.0981 77.3258 62.5723 77.5467V72.2417C62.7687 72.3172 62.9506 72.3871 62.9506 72.3871C62.9506 72.3871 63.2784 73.2373 63.3065 73.2373C63.3353 73.2373 63.6631 72.3871 63.6631 72.3871C63.6631 72.3871 64.5135 72.06 64.5135 72.0292C64.5135 72.0012 63.6631 71.674 63.6631 71.674C63.6631 71.674 63.3409 70.8239 63.3065 70.8239C63.2728 70.8239 62.9506 71.674 62.9506 71.674C62.9506 71.674 62.7687 71.744 62.5723 71.8195L62.5731 68.7908C62.6052 68.802 62.6244 68.8104 62.6244 68.8104C62.6244 68.8104 62.8392 69.3669 62.8576 69.3669C62.8769 69.3669 63.0917 68.8104 63.0917 68.8104C63.0917 68.8104 63.6487 68.5951 63.6487 68.5755C63.6487 68.5559 63.0917 68.3434 63.0917 68.3434C63.0917 68.3434 62.8801 67.7841 62.8576 67.7841C62.8352 67.7841 62.6244 68.3434 62.6244 68.3434C62.6244 68.3434 62.6052 68.349 62.5731 68.363ZM66.6334 84.7673C66.6871 84.7673 67.1936 83.4278 67.1936 83.4278C67.1936 83.4278 68.5329 82.9132 68.5329 82.8685C68.5329 82.8209 67.1936 82.3064 67.1936 82.3064C67.1936 82.3064 66.6783 80.9668 66.6334 80.9668C66.5885 80.9668 66.0723 82.3064 66.0723 82.3064C66.0723 82.3064 64.7339 82.8097 64.7339 82.8685C64.7339 82.9272 66.0723 83.4278 66.0723 83.4278C66.0723 83.4278 66.5789 84.7673 66.6334 84.7673ZM64.5135 86.75C64.556 86.75 64.9575 85.6873 64.9575 85.6873C64.9575 85.6873 66.0186 85.279 66.0186 85.2427C66.0186 85.2063 64.9575 84.7981 64.9575 84.7981C64.9575 84.7981 64.5487 83.7382 64.5135 83.7382C64.4774 83.7382 64.0687 84.7981 64.0687 84.7981C64.0687 84.7981 63.0075 85.1979 63.0075 85.2427C63.0075 85.2902 64.0687 85.6873 64.0687 85.6873C64.0687 85.6873 64.471 86.75 64.5135 86.75ZM66.1068 71.3636C66.1469 71.3636 66.5228 70.3709 66.5228 70.3709C66.5228 70.3709 67.5158 69.9878 67.5158 69.9542C67.5158 69.9206 66.5228 69.5375 66.5228 69.5375C66.5228 69.5375 66.1397 68.5447 66.1068 68.5447C66.0731 68.5447 65.6908 69.5375 65.6908 69.5375C65.6908 69.5375 64.6978 69.9122 64.6978 69.9542C64.6978 69.9989 65.6908 70.3709 65.6908 70.3709C65.6908 70.3709 66.0667 71.3636 66.1068 71.3636ZM67.931 60.6111C67.9085 60.6111 67.6969 61.1704 67.6969 61.1704C67.6969 61.1704 67.1399 61.3773 67.1399 61.4025C67.1399 61.4276 67.6969 61.6374 67.6969 61.6374C67.6969 61.6374 67.9117 62.1939 67.931 62.1939C67.9494 62.1939 68.1642 61.6374 68.1642 61.6374C68.1642 61.6374 68.7212 61.422 68.7212 61.4025C68.7212 61.3829 68.1642 61.1704 68.1642 61.1704C68.1642 61.1704 67.9534 60.6111 67.931 60.6111ZM39.8554 74.5964L39.8546 67.6694C40.0446 67.7701 40.9302 68.1113 40.9302 68.1113C40.9302 68.1113 41.359 69.2243 41.3967 69.2243C41.4335 69.2243 41.8623 68.1113 41.8623 68.1113C41.8623 68.1113 42.974 67.6946 42.974 67.6471C42.974 67.5967 41.8623 67.18 41.8623 67.18C41.8623 67.18 41.4407 66.0671 41.3967 66.0671C41.3518 66.0671 40.9302 67.18 40.9302 67.18C40.9302 67.18 40.0446 67.5212 39.8546 67.6219L39.853 58.413C40.063 58.5277 41.1578 58.9471 41.1578 58.9471C41.1578 58.9471 41.6732 60.2867 41.7181 60.2867C41.7629 60.2867 42.2791 58.9471 42.2791 58.9471C42.2791 58.9471 43.6175 58.4466 43.6175 58.3878C43.6175 58.3291 42.2791 57.8257 42.2791 57.8257C42.2791 57.8257 41.7718 56.489 41.7181 56.489C41.6644 56.489 41.1578 57.8257 41.1578 57.8257C41.1578 57.8257 40.063 58.248 39.853 58.3627V55.2362C39.853 54.8335 40.1688 54.5063 40.5575 54.5063L43.6087 55.0152C43.4997 55.2865 43.3939 55.5662 43.3939 55.5662C43.3939 55.5662 42.3328 55.9745 42.3328 56.0108C42.3328 56.0472 43.3939 56.4554 43.3939 56.4554C43.3939 56.4554 43.8027 57.5181 43.8379 57.5181C43.874 57.5181 44.2828 56.4554 44.2828 56.4554C44.2828 56.4554 45.3439 56.0584 45.3439 56.0108C45.3439 55.9661 44.2828 55.5662 44.2828 55.5662C44.2828 55.5662 44.1962 55.3396 44.1 55.0963L45.2589 55.2893C45.6477 55.2893 45.9634 55.6165 45.9634 56.0192L46.0011 63.3404C45.5122 63.1223 44.4751 62.7336 44.4751 62.7336C44.4751 62.7336 43.8027 60.955 43.7313 60.955C43.66 60.955 42.9876 62.7336 42.9876 62.7336C42.9876 62.7336 41.2115 63.416 41.2115 63.4775C41.2115 63.5362 42.9876 64.2213 42.9876 64.2213C42.9876 64.2213 43.672 65.9971 43.7313 65.9971C43.7915 65.9971 44.4751 64.2213 44.4751 64.2213C44.4751 64.2213 45.5138 63.8298 46.0027 63.6117L46.0308 69.1152C45.7791 69.009 45.4008 68.8692 45.4008 68.8692C45.4008 68.8692 45.073 68.019 45.045 68.019C45.0161 68.019 44.6883 68.8692 44.6883 68.8692C44.6883 68.8692 43.8379 69.1963 43.8379 69.2243C43.8379 69.2523 44.6883 69.5795 44.6883 69.5795C44.6883 69.5795 45.0105 70.4324 45.045 70.4324C45.0786 70.4324 45.4008 69.5795 45.4008 69.5795C45.4008 69.5795 45.7799 69.4396 46.0324 69.3334L46.0492 72.5689C45.8969 72.5102 45.727 72.4459 45.727 72.4459C45.727 72.4459 45.5122 71.8866 45.4938 71.8866C45.4745 71.8866 45.2598 72.4459 45.2598 72.4459C45.2598 72.4459 44.7027 72.6612 44.7027 72.678C44.7027 72.6976 45.2598 72.9129 45.2598 72.9129C45.2598 72.9129 45.4713 73.4694 45.4938 73.4694C45.5162 73.4694 45.727 72.9129 45.727 72.9129C45.727 72.9129 45.8977 72.8486 46.05 72.7871L46.0821 78.9981C45.727 78.8191 44.5296 78.3689 44.5296 78.3689C44.5296 78.3689 43.9045 76.7189 43.8379 76.7189C43.7714 76.7189 43.1471 78.3689 43.1471 78.3689C43.1471 78.3689 41.496 79.0065 41.496 79.0624C41.496 79.1183 43.1471 79.7532 43.1471 79.7532C43.1471 79.7532 43.7826 81.4031 43.8379 81.4031C43.8932 81.4031 44.5296 79.7532 44.5296 79.7532C44.5296 79.7532 45.7286 79.3029 46.0829 79.1267L46.1197 86.2578C46.1197 86.6605 45.8039 86.9877 45.4144 86.9877L40.5615 86.4172C40.1728 86.4172 39.8562 86.09 39.8562 85.6873V84.1548C40.382 84.373 41.1458 84.6666 41.1458 84.6666C41.1458 84.6666 41.8295 86.4424 41.8896 86.4424C41.9489 86.4424 42.6333 84.6666 42.6333 84.6666C42.6333 84.6666 44.4094 84.001 44.4094 83.9227C44.4094 83.8444 42.6333 83.1789 42.6333 83.1789C42.6333 83.1789 41.9609 81.4031 41.8896 81.4031C41.8182 81.4031 41.1458 83.1789 41.1458 83.1789C41.1458 83.1789 40.382 83.4725 39.8562 83.6934L39.8554 79.9545C40.0101 80.0188 40.1872 80.0859 40.1872 80.0859C40.1872 80.0859 40.398 80.6424 40.4205 80.6424C40.4429 80.6424 40.6545 80.0859 40.6545 80.0859C40.6545 80.0859 41.2115 79.8762 41.2115 79.851C41.2115 79.8286 40.6545 79.6189 40.6545 79.6189C40.6545 79.6189 40.4397 79.0624 40.4205 79.0624C40.402 79.0624 40.1872 79.6189 40.1872 79.6189C40.1872 79.6189 40.0101 79.686 39.8554 79.7504V75.041C40.2385 75.2004 40.7082 75.3794 40.7082 75.3794C40.7082 75.3794 41.2155 76.7189 41.2692 76.7189C41.3229 76.7189 41.8303 75.3794 41.8303 75.3794C41.8303 75.3794 43.1687 74.8788 43.1687 74.8201C43.1687 74.7614 41.8303 74.258 41.8303 74.258C41.8303 74.258 41.3141 72.9213 41.2692 72.9213C41.2243 72.9213 40.7082 74.258 40.7082 74.258C40.7082 74.258 40.2385 74.4398 39.8554 74.5964ZM42.2446 69.8927C42.2045 69.8927 41.8287 70.8854 41.8287 70.8854C41.8287 70.8854 40.8356 71.2657 40.8356 71.2993C40.8356 71.3329 41.8287 71.716 41.8287 71.716C41.8287 71.716 42.2118 72.7088 42.2446 72.7088C42.2783 72.7088 42.6606 71.716 42.6606 71.716C42.6606 71.716 43.6536 71.344 43.6536 71.2993C43.6536 71.2574 42.6606 70.8854 42.6606 70.8854C42.6606 70.8854 42.2847 69.8927 42.2446 69.8927ZM45.2004 82.9859C45.2229 82.9859 45.4337 82.4266 45.4337 82.4266C45.4337 82.4266 45.9907 82.2197 45.9907 82.1945C45.9907 82.1693 45.4337 81.9596 45.4337 81.9596C45.4337 81.9596 45.2189 81.4031 45.2004 81.4031C45.1812 81.4031 44.9664 81.9596 44.9664 81.9596C44.9664 81.9596 44.4094 82.1749 44.4094 82.1945C44.4094 82.2141 44.9664 82.4266 44.9664 82.4266C44.9664 82.4266 45.178 82.9859 45.2004 82.9859Z" fill="#FFB45C"/>
</g>
<defs>
<clipPath id="clip0_499_158">
<rect width="109" height="109" fill="white" transform="translate(0 0.25)"/>
</clipPath>
</defs>
</svg>
