<svg width="109" height="109" viewBox="0 0 109 109" fill="none" xmlns="http://www.w3.org/2000/svg">
<g clip-path="url(#clip0_499_124)">
<path d="M54.257 108.515C84.2224 108.515 108.514 84.223 108.514 54.2576C108.514 24.2922 84.2224 0.000488281 54.257 0.000488281C24.2916 0.000488281 -0.00012207 24.2922 -0.00012207 54.2576C-0.00012207 84.223 24.2916 108.515 54.257 108.515Z" fill="#183564"/>
<path fill-rule="evenodd" clip-rule="evenodd" d="M71.427 67.1268C71.5985 67.1268 73.2134 71.3931 73.2134 71.3931C73.2134 71.3931 77.4797 73.0353 77.4797 73.1795C77.4797 73.3238 73.2134 74.966 73.2134 74.966C73.2134 74.966 71.5704 79.2322 71.427 79.2322C71.2835 79.2322 69.6405 74.966 69.6405 74.966C69.6405 74.966 65.3743 73.3655 65.3743 73.1795C65.3743 72.9928 69.6405 71.3931 69.6405 71.3931C69.6405 71.3931 71.2555 67.1268 71.427 67.1268Z" fill="#FFF1CF"/>
<path fill-rule="evenodd" clip-rule="evenodd" d="M24.3967 55.7805C24.5073 55.7805 25.5444 58.5215 25.5444 58.5215C25.5444 58.5215 28.2854 59.5771 28.2854 59.6693C28.2854 59.7622 25.5444 60.8178 25.5444 60.8178C25.5444 60.8178 24.4888 63.5588 24.3967 63.5588C24.3045 63.5588 23.249 60.8178 23.249 60.8178C23.249 60.8178 20.5079 59.7895 20.5079 59.6693C20.5079 59.5498 23.249 58.5215 23.249 58.5215C23.249 58.5215 24.2861 55.7805 24.3967 55.7805Z" fill="#FFF1CF"/>
<path fill-rule="evenodd" clip-rule="evenodd" d="M56.2207 21.8975C56.3506 21.8975 57.5672 25.113 57.5672 25.113C57.5672 25.113 60.7819 26.3504 60.7819 26.4594C60.7819 26.5676 57.5672 27.8059 57.5672 27.8059C57.5672 27.8059 56.3289 31.0206 56.2207 31.0206C56.1125 31.0206 54.8742 27.8059 54.8742 27.8059C54.8742 27.8059 51.6595 26.5997 51.6595 26.4594C51.6595 26.3192 54.8742 25.113 54.8742 25.113C54.8742 25.113 56.0917 21.8975 56.2207 21.8975Z" fill="#FFF1CF"/>
<path fill-rule="evenodd" clip-rule="evenodd" d="M36.2537 24.1119C37.0928 23.3152 39.2512 27.2344 46.0348 31.5872C50.0037 34.1342 58.9113 43.0386 61.795 43.6549C63.2232 43.9595 63.559 40.4202 67.3988 39.4047C73.0781 37.9028 75.1114 43.0194 75.8992 43.1941C80.1895 44.1446 90.3273 45.1288 90.3505 45.5119C90.3818 46.0321 77.7186 44.9341 74.3925 45.6442C73.0885 45.9231 71.6442 47.5525 70.3475 49.157C67.0534 53.2301 66.3473 56.912 61.4776 61.7986C55.3808 67.9162 51.5634 67.2999 50.1456 69.5063C47.6674 73.3638 48.0401 81.5164 45.804 84.5019C45.493 84.917 44.9785 84.0082 44.9088 83.2067C44.7477 81.3352 43.6497 88.6503 41.9041 88.3425C41.3735 88.2487 43.2513 81.51 42.9452 81.623C42.1293 81.9227 38.5203 90.6099 37.6002 90.036C36.9165 89.6104 40.3332 82.3395 40.112 81.5877C39.9877 81.1661 35.9227 87.1395 35.5853 86.3108C35.3144 85.6456 36.9918 82.1503 38.9362 77.3119C39.6022 75.6568 40.104 74.9002 40.5921 73.6291C41.0946 72.3203 41.5939 70.4681 43.063 66.6683C44.165 63.8183 45.053 61.6183 45.804 59.7941C46.4612 58.2008 47.2699 57.4386 46.7361 56.4648C45.5483 54.3008 41.3847 52.6642 39.9276 51.1094C39.345 50.4875 37.4006 50.2294 36.0301 48.8252C34.8647 47.631 35.2438 46.0826 34.5666 45.1513C34.0713 44.47 31.5891 44.0741 31.0097 43.2029C29.9982 41.6825 29.858 39.8728 29.2561 38.9751C28.6622 38.0887 25.9291 37.9653 25.2247 35.6378C24.6436 33.7199 23.7836 31.7611 22.9837 30.4579C21.9531 28.7812 21.0402 27.8924 21.2838 27.1655C21.5195 26.4626 24.0521 26.9186 27.2171 27.7529C30.0896 28.5103 33.0262 29.2525 35.6245 30.7176C39.3778 32.8343 43.1832 35.875 42.8274 35.4022C37.4856 28.314 35.974 24.3771 36.2537 24.1119Z" fill="#FFB45C"/>
</g>
<defs>
<clipPath id="clip0_499_124">
<rect width="109" height="109" fill="white"/>
</clipPath>
</defs>
</svg>
