<svg width="411" height="106" viewBox="0 0 411 106" fill="none" xmlns="http://www.w3.org/2000/svg">
<g filter="url(#filter0_d_1028_955)">
<path d="M31.8942 71.1527C28.0277 71.1527 25.1535 70.2814 23.2716 68.5388C21.4239 66.7962 20.5 64.1311 20.5 60.5434V36.6048C20.5 35.8709 21.0975 35.2759 21.8345 35.2759C22.5715 35.2759 23.1689 35.8709 23.1689 36.6048V60.5434C23.1689 63.4136 23.8703 65.532 25.2732 66.8988C26.6761 68.2655 28.8831 68.9489 31.8942 68.9489H42.3358C42.9469 68.9489 43.4423 69.4422 43.4423 70.0508C43.4423 70.6594 42.9469 71.1527 42.3358 71.1527H31.8942Z" fill="#FFB45C"/>
<path d="M47.7865 36.6048C47.7865 35.8709 48.384 35.2759 49.121 35.2759C49.858 35.2759 50.4554 35.8709 50.4554 36.6048V69.8238C50.4554 70.5577 49.858 71.1527 49.121 71.1527C48.384 71.1527 47.7865 70.5577 47.7865 69.8238V36.6048Z" fill="#FFB45C"/>
<path d="M70.3218 71.7165C65.8052 71.7165 62.3493 70.5889 59.9542 68.3338C57.559 66.0787 56.3614 62.8498 56.3614 58.6471V47.7303C56.3614 43.4934 57.5419 40.2645 59.9028 38.0436C62.298 35.8226 65.771 34.7122 70.3218 34.7122C73.2303 34.7122 75.6939 35.088 77.7127 35.8397C79.371 36.4193 80.8731 37.2887 82.2189 38.448C82.748 38.9038 82.7168 39.7122 82.1945 40.1758C81.6992 40.6154 80.9468 40.5777 80.4449 40.1456C77.9439 37.9925 74.5695 36.916 70.3218 36.916C66.6606 36.916 63.8549 37.8386 61.9045 39.6837C59.9884 41.5287 59.0303 44.211 59.0303 47.7303V58.6471C59.0303 62.1664 59.9884 64.8486 61.9045 66.6937C63.8549 68.5388 66.6778 69.4614 70.3732 69.4614C73.7264 69.4614 76.3953 68.8293 78.3799 67.565C80.3987 66.2666 81.4081 64.524 81.4081 62.3373V58.5446C81.4081 56.8703 80.9461 55.589 80.0223 54.7006C79.1326 53.8123 77.8324 53.3681 76.1216 53.3681H70.9407C70.3438 53.3681 69.8599 52.8862 69.8599 52.2918C69.8599 51.6973 70.3438 51.2155 70.9407 51.2155H76.4808C78.9445 51.2155 80.8093 51.8305 82.0753 53.0606C83.3413 54.2565 83.9743 56.0332 83.9743 58.3908V62.4398C83.9743 64.319 83.4097 65.9591 82.2806 67.36C81.1857 68.7268 79.6117 69.8031 77.5587 70.5889C75.5057 71.3406 73.0934 71.7165 70.3218 71.7165Z" fill="#FFB45C"/>
<path d="M89.3177 36.6048C89.3177 35.8709 89.9152 35.2759 90.6522 35.2759C91.3892 35.2759 91.9866 35.8709 91.9866 36.6048V50.5022C91.9866 51.349 92.676 52.0355 93.5264 52.0355H111.952C112.802 52.0355 113.492 51.349 113.492 50.5022V36.6048C113.492 35.8709 114.089 35.2759 114.826 35.2759C115.563 35.2759 116.161 35.8709 116.161 36.6048V69.8238C116.161 70.5577 115.563 71.1527 114.826 71.1527C114.089 71.1527 113.492 70.5577 113.492 69.8238V55.7727C113.492 54.9259 112.802 54.2394 111.952 54.2394H93.5264C92.676 54.2394 91.9866 54.9259 91.9866 55.7727V69.8238C91.9866 70.5577 91.3892 71.1527 90.6522 71.1527C89.9152 71.1527 89.3177 70.5577 89.3177 69.8238V36.6048Z" fill="#FFB45C"/>
<path d="M132.111 39.0131C132.111 38.1663 131.422 37.4798 130.571 37.4798H121.362C120.751 37.4798 120.255 36.9864 120.255 36.3779C120.255 35.7693 120.751 35.2759 121.362 35.2759H145.581C146.192 35.2759 146.688 35.7693 146.688 36.3779C146.688 36.9864 146.192 37.4798 145.581 37.4798H136.32C135.47 37.4798 134.78 38.1663 134.78 39.0131V69.8238C134.78 70.5577 134.183 71.1527 133.446 71.1527C132.709 71.1527 132.111 70.5577 132.111 69.8238V39.0131Z" fill="#FFB45C"/>
</g>
<path fill-rule="evenodd" clip-rule="evenodd" d="M173.449 53.9284C173.977 53.7521 173.976 52.8202 173.446 52.6457C169.553 51.363 166.288 48.9933 164.639 45.8381C164.543 45.6552 164.574 45.4325 164.717 45.2831C167.318 42.5596 171.408 41.1753 175.768 41.151C176.258 41.1483 176.523 40.512 176.179 40.1646C173.12 37.0782 171.215 33.223 171.31 29.47C171.315 29.2638 171.451 29.0841 171.648 29.0221C175.035 27.9587 179.001 28.5698 182.648 30.3804C183.147 30.6282 183.808 29.9682 183.557 29.472C181.716 25.8236 181.09 21.8491 182.163 18.4561C182.226 18.2593 182.406 18.124 182.613 18.1188C186.385 18.0244 190.261 19.9251 193.362 22.9782C193.711 23.3221 194.352 23.0568 194.354 22.5676C194.368 18.2058 195.758 14.111 198.503 11.5131C198.653 11.3711 198.877 11.3398 199.061 11.4349C202.229 13.0772 204.609 16.3287 205.897 20.2056C206.072 20.7329 207.008 20.7344 207.185 20.2077C208.478 16.3592 210.848 13.1351 213.998 11.5011C214.182 11.4058 214.406 11.4372 214.556 11.5794C217.278 14.157 218.668 18.2029 218.706 22.5214C218.71 23.0086 219.347 23.2706 219.695 22.9282C222.795 19.8797 226.667 17.982 230.437 18.0784C230.644 18.0837 230.824 18.2189 230.886 18.4155C231.954 21.7882 231.341 25.7377 229.523 29.3691C229.274 29.8662 229.936 30.5241 230.435 30.2746C234.098 28.4403 238.09 27.8164 241.497 28.8866C241.695 28.9486 241.83 29.1283 241.836 29.3345C241.93 33.0905 240.022 36.9486 236.956 40.0365C236.611 40.3844 236.877 41.0227 237.368 41.0244C241.748 41.039 245.859 42.4243 248.469 45.1585C248.611 45.3079 248.643 45.5306 248.547 45.7135C246.899 48.868 243.634 51.2374 239.742 52.5204C239.213 52.6949 239.211 53.6276 239.74 53.8039C243.604 55.0911 246.841 57.4526 248.481 60.5888C248.577 60.7718 248.545 60.9944 248.403 61.1439C245.815 63.8547 241.753 65.2378 237.416 65.2764C236.926 65.2808 236.663 65.9178 237.008 66.2641C240.096 69.3577 242.02 73.2329 241.924 77.0047C241.919 77.2108 241.783 77.3904 241.585 77.4524C238.18 78.5224 234.188 77.8989 230.526 76.0652C230.028 75.8157 229.364 76.4739 229.613 76.971C231.43 80.6021 232.043 84.5511 230.975 87.9234C230.913 88.1201 230.732 88.2553 230.525 88.2606C226.771 88.3558 222.915 86.4742 219.821 83.4467C219.472 83.1052 218.835 83.3687 218.832 83.8559C218.805 88.1939 217.416 92.262 214.683 94.8479C214.532 94.9899 214.309 95.0212 214.125 94.9261C210.975 93.2935 208.605 90.0684 207.312 86.2205C207.135 85.6939 206.199 85.6954 206.024 86.2227C204.736 90.0997 202.356 93.3514 199.188 94.9938C199.004 95.089 198.78 95.0576 198.63 94.9155C195.896 92.3259 194.505 88.2532 194.48 83.9107C194.478 83.4216 193.836 83.1578 193.488 83.5025C190.38 86.5767 186.49 88.4936 182.703 88.3979C182.496 88.3927 182.316 88.2575 182.253 88.0608C181.179 84.6677 181.805 80.6931 183.647 77.0446C183.898 76.5484 183.237 75.8884 182.738 76.1362C179.091 77.9468 175.125 78.558 171.738 77.4945C171.541 77.4325 171.405 77.2529 171.4 77.0468C171.304 73.3079 173.194 69.4679 176.234 66.3872C176.577 66.0397 176.312 65.4057 175.823 65.4027C171.467 65.3756 167.382 63.9903 164.785 61.2702C164.642 61.1207 164.611 60.8982 164.706 60.7153C166.346 57.577 169.585 55.2161 173.449 53.9284ZM190.001 45.9548C189.573 45.9745 189.36 46.4864 189.649 46.8016C190.27 47.4791 190.97 48.1689 191.967 48.8492C192.357 49.1155 192.264 49.7672 191.815 49.9157C190.342 50.4031 189.335 51.0408 188.361 51.6571C187.825 51.9969 187.298 52.3302 186.71 52.6283C186.256 52.8582 186.259 53.6666 186.714 53.8936C187.328 54.1997 187.873 54.5445 188.428 54.8962C189.402 55.5127 190.409 56.1503 191.882 56.6375C192.331 56.7861 192.424 57.4381 192.034 57.7046C191.055 58.3731 190.362 59.0511 189.748 59.718C189.459 60.0326 189.671 60.5439 190.099 60.5634C191.023 60.6052 192.009 60.6002 193.199 60.3792C193.664 60.2928 194.061 60.8187 193.849 61.2397C193.154 62.621 192.895 63.7805 192.644 64.9014C192.501 65.542 192.361 66.1701 192.144 66.8198C191.983 67.3009 192.554 67.8747 193.039 67.7177C193.667 67.514 194.276 67.3791 194.896 67.2416C196.023 66.9921 197.187 66.734 198.575 66.0413C198.998 65.8302 199.527 66.2258 199.44 66.6888C199.218 67.8746 199.213 68.8578 199.255 69.7774C199.275 70.2042 199.79 70.4162 200.107 70.1288C200.803 69.499 201.511 68.7934 202.209 67.7798C202.477 67.3913 203.131 67.4836 203.281 67.9306C203.77 69.3974 204.411 70.4003 205.03 71.3701C205.371 71.9044 205.706 72.4287 206.006 73.0149C206.237 73.4668 207.048 73.4635 207.276 73.0099C207.584 72.3977 207.93 71.8548 208.284 71.301C208.902 70.3319 209.543 69.3294 210.032 67.8631C210.181 67.4161 210.836 67.3238 211.103 67.7124C211.774 68.6877 212.455 69.3774 213.124 69.9883C213.44 70.2765 213.953 70.0647 213.973 69.6387C214.015 68.7199 214.011 67.7374 213.789 66.5524C213.702 66.0893 214.231 65.6935 214.654 65.9046C216.041 66.597 217.205 66.8551 218.331 67.1048C218.974 67.2473 219.605 67.3871 220.257 67.6034C220.74 67.7637 221.317 67.1943 221.159 66.7121C220.954 66.0866 220.818 65.4801 220.68 64.862C220.429 63.7404 220.17 62.5805 219.474 61.1988C219.262 60.7777 219.659 60.2514 220.124 60.3378C221.288 60.554 222.258 60.5631 223.163 60.5241C223.591 60.5056 223.804 59.9937 223.516 59.6777C222.882 58.9835 222.173 58.2764 221.151 57.5793C220.761 57.313 220.854 56.6613 221.303 56.5127C222.776 56.025 223.783 55.3872 224.757 54.7706C225.312 54.4186 225.857 54.0735 226.472 53.7672C226.927 53.5402 226.93 52.7318 226.476 52.5019C225.887 52.2038 225.361 51.8705 224.825 51.5308C223.851 50.9144 222.844 50.2768 221.371 49.7894C220.922 49.6408 220.829 48.9892 221.22 48.7228C222.219 48.0406 222.92 47.3488 223.544 46.6687C223.833 46.3533 223.62 45.8408 223.191 45.8202C222.252 45.7751 221.25 45.775 220.036 46.0007C219.571 46.0871 219.174 45.5609 219.386 45.1397C220.081 43.7577 220.34 42.5978 220.591 41.4766C220.729 40.8587 220.864 40.2526 221.068 39.6276C221.226 39.1453 220.65 38.5756 220.166 38.7359C219.514 38.9521 218.883 39.0919 218.24 39.2344C217.115 39.4838 215.951 39.7418 214.563 40.4335C214.14 40.6444 213.612 40.2486 213.699 39.7855C213.917 38.6242 213.925 37.6577 213.886 36.7546C213.867 36.3283 213.353 36.1166 213.037 36.4043C212.355 37.024 211.661 37.7212 210.976 38.7155C210.709 39.1041 210.054 39.0119 209.905 38.5649C209.415 37.0983 208.775 36.0956 208.157 35.1263C207.803 34.5729 207.457 34.0304 207.15 33.4187C206.922 32.9651 206.11 32.9621 205.879 33.4141C205.58 34.0004 205.245 34.5247 204.903 35.0591C204.284 36.0283 203.643 37.0309 203.154 38.4974C203.005 38.9445 202.35 39.0367 202.083 38.6481C201.398 37.6532 200.704 36.9556 200.021 36.3353C199.704 36.0472 199.189 36.2599 199.169 36.6868C199.124 37.6216 199.124 38.6193 199.35 39.8279C199.437 40.2909 198.908 40.6864 198.485 40.4753C197.098 39.7827 195.933 39.5246 194.807 39.2751C194.187 39.1376 193.578 39.0026 192.95 38.7989C192.465 38.6419 191.894 39.2154 192.054 39.6965C192.271 40.3453 192.411 40.9725 192.554 41.6122C192.805 42.7339 193.064 43.894 193.76 45.2763C193.972 45.6974 193.575 46.2236 193.11 46.1374C191.916 45.9159 190.926 45.9122 190.001 45.9548Z" fill="#FFB45C"/>
<path fill-rule="evenodd" clip-rule="evenodd" d="M206.594 0.714355C235.689 0.714355 259.313 24.2376 259.313 53.2134C259.313 82.1893 235.689 105.714 206.594 105.714C177.497 105.714 153.873 82.1893 153.873 53.2134C153.873 24.2376 177.497 0.714355 206.594 0.714355ZM173.446 52.6457C173.976 52.8202 173.977 53.7521 173.449 53.9283C169.585 55.2161 166.346 57.577 164.707 60.7152C164.611 60.8981 164.643 61.1207 164.785 61.2701C167.382 63.9903 171.467 65.3755 175.823 65.4026C176.312 65.4057 176.577 66.0396 176.234 66.3872C173.194 69.4679 171.304 73.3078 171.4 77.0467C171.405 77.2528 171.541 77.4325 171.739 77.4945C175.125 78.5579 179.091 77.9468 182.738 76.1362C183.237 75.8884 183.898 76.5484 183.647 77.0446C181.805 80.6931 181.179 84.6677 182.253 88.0608C182.316 88.2574 182.496 88.3927 182.703 88.3979C186.49 88.4935 190.38 86.5766 193.488 83.5025C193.836 83.1578 194.478 83.4216 194.481 83.9107C194.505 88.2532 195.896 92.3258 198.63 94.9154C198.78 95.0575 199.004 95.089 199.188 94.9937C202.356 93.3514 204.736 90.0997 206.024 86.2226C206.199 85.6954 207.135 85.6939 207.312 86.2205C208.605 90.0684 210.975 93.2935 214.125 94.926C214.309 95.0212 214.533 94.9898 214.683 94.8478C217.416 92.2619 218.805 88.1939 218.832 83.8559C218.835 83.3687 219.472 83.1052 219.821 83.4467C222.915 86.4742 226.771 88.3557 230.525 88.2605C230.732 88.2553 230.913 88.12 230.975 87.9234C232.043 84.551 231.431 80.6021 229.613 76.971C229.364 76.4739 230.028 75.8156 230.526 76.0651C234.189 77.8988 238.18 78.5224 241.586 77.4524C241.783 77.3903 241.919 77.2107 241.924 77.0046C242.02 73.2329 240.096 69.3577 237.008 66.264C236.663 65.9178 236.926 65.2807 237.416 65.2764C241.753 65.2378 245.816 63.8546 248.403 61.1439C248.545 60.9944 248.577 60.7717 248.481 60.5888C246.841 57.4525 243.604 55.0911 239.74 53.8038C239.211 53.6276 239.213 52.6949 239.742 52.5203C243.634 51.2374 246.899 48.8679 248.547 45.7135C248.643 45.5306 248.612 45.3079 248.469 45.1584C245.859 42.4243 241.748 41.0389 237.368 41.0243C236.877 41.0227 236.611 40.3843 236.956 40.0365C240.022 36.9486 241.93 33.0905 241.836 29.3344C241.83 29.1283 241.695 28.9486 241.497 28.8866C238.09 27.8164 234.099 28.4403 230.435 30.2746C229.937 30.5241 229.274 29.8661 229.523 29.3691C231.341 25.7377 231.955 21.7882 230.887 18.4155C230.824 18.2189 230.644 18.0836 230.437 18.0783C226.668 17.982 222.795 19.8797 219.695 22.9282C219.347 23.2706 218.71 23.0086 218.706 22.5213C218.668 18.2028 217.278 14.157 214.556 11.5793C214.406 11.4372 214.182 11.4058 213.998 11.5011C210.848 13.135 208.478 16.3592 207.185 20.2077C207.008 20.7343 206.072 20.7329 205.897 20.2056C204.609 16.3287 202.229 13.0771 199.061 11.4349C198.877 11.3397 198.653 11.3711 198.503 11.5131C195.758 14.1109 194.368 18.2057 194.354 22.5676C194.352 23.0567 193.711 23.322 193.362 22.9781C190.261 19.9251 186.385 18.0243 182.613 18.1188C182.406 18.1239 182.226 18.2593 182.163 18.456C181.09 21.8491 181.716 25.8236 183.557 29.4719C183.808 29.9681 183.147 30.6282 182.648 30.3804C179.001 28.5698 175.035 27.9586 171.648 29.0221C171.451 29.0841 171.315 29.2638 171.31 29.4699C171.215 33.2229 173.12 37.0781 176.179 40.1645C176.524 40.5119 176.259 41.1482 175.768 41.151C171.408 41.1753 167.318 42.5596 164.717 45.283C164.575 45.4325 164.543 45.6552 164.639 45.8381C166.288 48.9932 169.553 51.363 173.446 52.6457ZM189.649 46.8015C189.36 46.4863 189.573 45.9745 190.001 45.9547C190.926 45.9121 191.916 45.9159 193.11 46.1373C193.575 46.2236 193.972 45.6973 193.76 45.2763C192.667 43.1057 192.651 41.483 192.054 39.6965C191.894 39.2153 192.466 38.6419 192.95 38.7989C194.717 39.3721 196.333 39.4008 198.486 40.4752C198.908 40.6863 199.437 40.2909 199.35 39.8278C199.124 38.6193 199.124 37.6216 199.169 36.6867C199.189 36.2598 199.704 36.0472 200.021 36.3353C200.704 36.9556 201.398 37.6532 202.083 38.648C202.35 39.0366 203.005 38.9445 203.154 38.4974C203.914 36.2222 205.036 35.0636 205.879 33.4141C206.11 32.9621 206.922 32.9651 207.15 33.4187C207.996 35.1019 209.136 36.261 209.905 38.5648C210.054 39.0119 210.709 39.1041 210.977 38.7155C211.661 37.7212 212.355 37.024 213.037 36.4042C213.353 36.1166 213.867 36.3282 213.886 36.7546C213.925 37.6577 213.917 38.6242 213.699 39.7855C213.612 40.2485 214.14 40.6444 214.563 40.4334C216.743 39.3465 218.373 39.3305 220.166 38.7358C220.65 38.5756 221.226 39.1453 221.068 39.6276C220.493 41.3867 220.464 42.9962 219.386 45.1396C219.174 45.5609 219.571 46.0871 220.036 46.0006C221.25 45.7749 222.252 45.775 223.192 45.8202C223.62 45.8408 223.833 46.3532 223.544 46.6686C222.92 47.3487 222.219 48.0406 221.22 48.7228C220.829 48.9891 220.922 49.6408 221.371 49.7893C223.656 50.5454 224.82 51.6629 226.476 52.5019C226.93 52.7318 226.927 53.5402 226.472 53.7672C224.781 54.61 223.617 55.7466 221.303 56.5127C220.854 56.6613 220.761 57.313 221.152 57.5793C222.173 58.2763 222.882 58.9834 223.516 59.6777C223.804 59.9937 223.591 60.5056 223.163 60.5241C222.258 60.5631 221.288 60.554 220.124 60.3378C219.659 60.2514 219.262 60.7776 219.474 61.1987C220.553 63.3419 220.583 64.9515 221.159 66.7121C221.317 67.1943 220.74 67.7636 220.257 67.6034C218.463 67.0084 216.833 66.9924 214.654 65.9046C214.231 65.6935 213.702 66.0892 213.789 66.5524C214.011 67.7374 214.015 68.7198 213.973 69.6386C213.953 70.0647 213.44 70.2764 213.124 69.9883C212.455 69.3774 211.774 68.6877 211.103 67.7123C210.836 67.3238 210.181 67.416 210.032 67.863C209.263 70.1673 208.122 71.3265 207.276 73.0099C207.048 73.4634 206.237 73.4668 206.006 73.0148C205.162 71.3647 204.04 70.2054 203.281 67.9306C203.132 67.4836 202.477 67.3913 202.21 67.7797C201.511 68.7933 200.803 69.499 200.107 70.1287C199.79 70.4162 199.275 70.2042 199.255 69.7773C199.213 68.8578 199.218 67.8745 199.44 66.6888C199.527 66.2258 198.998 65.8302 198.575 66.0412C196.422 67.1158 194.806 67.1445 193.039 67.7177C192.554 67.8747 191.983 67.3009 192.144 66.8197C192.741 65.0332 192.757 63.4104 193.849 61.2397C194.061 60.8187 193.664 60.2928 193.199 60.3791C192.009 60.6002 191.023 60.6052 190.099 60.5633C189.671 60.5439 189.459 60.0326 189.748 59.718C190.362 59.051 191.055 58.373 192.034 57.7045C192.424 57.4381 192.331 56.786 191.882 56.6375C189.569 55.8723 188.405 54.7362 186.714 53.8936C186.259 53.6665 186.256 52.8582 186.71 52.6283C188.366 51.7893 189.53 50.6718 191.815 49.9157C192.264 49.7672 192.357 49.1155 191.967 48.8492C190.97 48.1688 190.27 47.4791 189.649 46.8015Z" fill="#183564"/>
<g filter="url(#filter1_d_1028_955)">
<path d="M266.499 46.3143C266.499 42.7025 267.491 39.9766 269.475 38.1366C271.46 36.2625 274.625 35.3255 278.971 35.3255H289.544C290.394 35.3255 291.083 36.012 291.083 36.8588V38.5455C291.083 39.3923 290.394 40.0788 289.544 40.0788H278.971C276.781 40.0788 275.155 40.5899 274.095 41.6121C273.068 42.6003 272.555 44.1677 272.555 46.3143V50.3521C272.555 51.1989 273.244 51.8854 274.095 51.8854H287.183C288.033 51.8854 288.722 52.5719 288.722 53.4188V55.0543C288.722 55.9012 288.033 56.5877 287.183 56.5877H274.095C273.244 56.5877 272.555 57.2741 272.555 58.121V69.5698C272.555 70.4167 271.866 71.1031 271.015 71.1031H268.038C267.188 71.1031 266.499 70.4166 266.499 69.5698V46.3143Z" fill="#183564"/>
<path d="M306.219 71.7165C301.531 71.7165 297.939 70.6091 295.441 68.3943C292.943 66.1795 291.694 62.9424 291.694 58.6832V47.7455C291.694 43.4862 292.943 40.2492 295.441 38.0344C297.939 35.8196 301.531 34.7122 306.219 34.7122C310.907 34.7122 314.482 35.8196 316.946 38.0344C319.444 40.2492 320.693 43.4862 320.693 47.7455V58.6832C320.693 62.9424 319.444 66.1795 316.946 68.3943C314.482 70.6091 310.907 71.7165 306.219 71.7165ZM306.219 66.9632C308.922 66.9632 310.992 66.2646 312.429 64.8676C313.901 63.4365 314.636 61.375 314.636 58.6832V47.7455C314.636 45.0536 313.901 43.0092 312.429 41.6121C310.992 40.181 308.922 39.4655 306.219 39.4655C303.482 39.4655 301.377 40.181 299.906 41.6121C298.469 43.0092 297.75 45.0536 297.75 47.7455V58.6832C297.75 61.375 298.469 63.4365 299.906 64.8676C301.377 66.2646 303.482 66.9632 306.219 66.9632Z" fill="#183564"/>
<path d="M353.47 69.145C353.754 70.1253 353.015 71.1031 351.99 71.1031H348.78C348.093 71.1031 347.49 70.6511 347.3 69.9946L345.209 62.7721C344.73 61.1024 344.234 59.8076 343.72 58.8876C343.207 57.9336 342.489 57.218 341.565 56.741C340.675 56.2639 339.46 56.0254 337.921 56.0254H333.199C332.348 56.0254 331.659 56.7119 331.659 57.5588V69.5698C331.659 70.4166 330.97 71.1031 330.119 71.1031H327.142C326.292 71.1031 325.603 70.4166 325.603 69.5698V36.8588C325.603 36.012 326.292 35.3255 327.142 35.3255H340.436C344.473 35.3255 347.484 36.1773 349.469 37.881C351.453 39.5847 352.446 42.1573 352.446 45.5988C352.446 48.018 351.83 49.9603 350.598 51.4254C350.373 51.6929 350.132 51.9423 349.874 52.1734C348.896 53.0498 348.559 56.0434 349.263 57.1499C350.153 58.5469 350.94 60.421 351.624 62.7721L353.47 69.145ZM340.436 51.2721C342.215 51.2721 343.652 50.7951 344.747 49.841C345.842 48.8869 346.389 47.5069 346.389 45.701C346.389 43.861 345.842 42.464 344.747 41.5099C343.652 40.5558 342.215 40.0788 340.436 40.0788H333.199C332.348 40.0788 331.659 40.7653 331.659 41.6121V49.7388C331.659 50.5856 332.348 51.2721 333.199 51.2721H340.436Z" fill="#183564"/>
<path d="M356.933 36.8588C356.933 36.012 357.623 35.3255 358.473 35.3255H363.614C364.774 35.3255 365.835 35.9742 366.36 37.0039L372.566 49.1763C373.143 50.3077 374.771 50.2916 375.325 49.1491L381.191 37.0582C381.705 35.9987 382.782 35.3255 383.964 35.3255H388.96C389.811 35.3255 390.5 36.012 390.5 36.8588V69.5698C390.5 70.4166 389.811 71.1031 388.96 71.1031H386.497C385.646 71.1031 384.957 70.4166 384.957 69.5698V45.9002C384.957 44.8211 383.496 44.4782 383.012 45.4439L375.321 60.7963C374.76 61.9171 373.159 61.9311 372.578 60.8203L364.413 45.2125C363.917 44.264 362.476 44.6153 362.476 45.6848V69.5698C362.476 70.4166 361.787 71.1031 360.937 71.1031H358.473C357.623 71.1031 356.933 70.4166 356.933 69.5698V36.8588Z" fill="#183564"/>
</g>
<defs>
<filter id="filter0_d_1028_955" x="0.5" y="14.7122" width="166.188" height="77.0043" filterUnits="userSpaceOnUse" color-interpolation-filters="sRGB">
<feFlood flood-opacity="0" result="BackgroundImageFix"/>
<feColorMatrix in="SourceAlpha" type="matrix" values="0 0 0 0 0 0 0 0 0 0 0 0 0 0 0 0 0 0 127 0" result="hardAlpha"/>
<feOffset/>
<feGaussianBlur stdDeviation="10"/>
<feComposite in2="hardAlpha" operator="out"/>
<feColorMatrix type="matrix" values="0 0 0 0 1 0 0 0 0 0.945098 0 0 0 0 0.811765 0 0 0 1 0"/>
<feBlend mode="normal" in2="BackgroundImageFix" result="effect1_dropShadow_1028_955"/>
<feBlend mode="normal" in="SourceGraphic" in2="effect1_dropShadow_1028_955" result="shape"/>
</filter>
<filter id="filter1_d_1028_955" x="246.499" y="14.7122" width="164.001" height="77.0043" filterUnits="userSpaceOnUse" color-interpolation-filters="sRGB">
<feFlood flood-opacity="0" result="BackgroundImageFix"/>
<feColorMatrix in="SourceAlpha" type="matrix" values="0 0 0 0 0 0 0 0 0 0 0 0 0 0 0 0 0 0 127 0" result="hardAlpha"/>
<feOffset/>
<feGaussianBlur stdDeviation="10"/>
<feComposite in2="hardAlpha" operator="out"/>
<feColorMatrix type="matrix" values="0 0 0 0 1 0 0 0 0 0.945098 0 0 0 0 0.811765 0 0 0 0.6 0"/>
<feBlend mode="normal" in2="BackgroundImageFix" result="effect1_dropShadow_1028_955"/>
<feBlend mode="normal" in="SourceGraphic" in2="effect1_dropShadow_1028_955" result="shape"/>
</filter>
</defs>
</svg>
